<?xml version="1.0" encoding="UTF-8"?>
<svg xmlns="http://www.w3.org/2000/svg" xmlns:xlink="http://www.w3.org/1999/xlink" width="512" height="512" viewBox="0 0 59 58" version="1.1"><!-- Generator: Sketch 51.3 (57544) - http://www.bohemiancoding.com/sketch --><title>018 - Ideas growth</title><desc>Created with Sketch.</desc><defs/><g id="Page-1" stroke="none" stroke-width="1" fill="none" fill-rule="evenodd"><g id="018---Ideas-growth" transform="translate(-1.000000, 0.000000)" fill-rule="nonzero"><path d="M40,44 L40.1,44 C40.1,44 43.12,46.8 46.14,47.36 C47.9405555,47.7605172 49.658894,48.4674715 51.22,49.45 C52.62,50.27 54.05,51.05 55.48,51.83 C56.49,52.38 58.17,52.96 58.77,54.02 C59.0481775,54.6968648 59.1346702,55.4372418 59.02,56.16 L59.02,58 L1.02,58 L1.02,56.16 C0.91537055,55.4370699 1.00155319,54.6993465 1.27,54.02 C1.88,52.96 3.55,52.38 4.56,51.83 C5.99,51.05 7.42,50.27 8.83,49.45 C10.3866807,48.4658841 12.1020231,47.7587705 13.9,47.36 C16.92,46.8 19.95,44 19.95,44 L40,44 Z" id="Shape" fill="#2980BA"/><path d="M40,42.95 L40,50.96 C40,50.96 40,58 33,58 L27,58 C20,58 20,50.96 20,50.96 L20,42.95 L40,42.95 Z" id="Shape" fill="#CBB292"/><path d="M44.9676,21 C46.0903,20.7309 47.5284,20.6717 48.3599,21.6531 C49.2016,22.6465 49.0392,24.2859 48.8409,25.4875 C48.451264,28.3505238 46.6252069,30.8157331 44,32.0228 L16,32.0228 C13.3747931,30.8157331 11.548736,28.3505238 11.1591,25.4875 C10.9608,24.2859 10.7984,22.6465 11.6401,21.6531 C12.4716,20.6717 13.9101,20.7309 15.0324,21 L44.9676,21 Z" id="Shape" fill="#F09372"/><path d="M44.88,15.37 C44.88,15.42 44.89,15.48 44.89,15.53 C44.91,15.85 44.92,16.16 44.93,16.46 C45.33,26.54 43.83,27.68 43.83,31.4 C43.83,35.23 44.89,38.51 40.64,42.34 C36.38,46.17 36.38,50 32.13,50 L27.87,50 C23.62,50 23.62,46.17 19.36,42.34 C15.11,38.51 16.17,35.23 16.17,31.4 C16.17,27.68 14.67,26.54 15.07,16.46 C15.08,16.16 15.09,15.85 15.11,15.53 C15.11,15.48 15.12,15.42 15.12,15.37" id="Shape" fill="#FDD7AD"/><path d="M44.88,15.38 L44.88,15.37 C44.48,14.31 43.08,13.35 41,12.6 L19,12.6 C16.92,13.35 15.52,14.31 15.12,15.37 L15.12,15.38 L15.07,16.46 L15.07,16.47 C15.78,19.01 22.2,21 30,21 C37.8,21 44.22,19.01 44.93,16.47 L44.93,16.46 L44.88,15.38 Z" id="Shape" fill="#802F34"/><path d="M27.3876,17 L27.3876,9.5 C27.3876,9.22385763 27.6114576,9 27.8876,9 L30.2741,9 C30.4710025,9.00000449 30.6495741,8.88444557 30.7302341,8.7048222 C30.8108941,8.52519883 30.778622,8.31496043 30.6478,8.1678 L23.7613,0.42 C23.6664164,0.313258976 23.5304165,0.252187161 23.3876,0.252187161 C23.2447835,0.252187161 23.1087836,0.313258976 23.0139,0.42 L16.1273,8.1678 C15.996478,8.31496043 15.9642059,8.52519883 16.0448659,8.7048222 C16.1255259,8.88444557 16.3040975,9.00000449 16.501,9 L18.8876,9 C19.1637424,9 19.3876,9.22385763 19.3876,9.5 L19.3876,17 L27.3876,17 Z" id="Shape" fill="#3B97D3"/><path d="M30.2776,9 L27.8876,9 C27.7545906,8.99867696 27.6266435,9.05093042 27.5325869,9.14498694 C27.4385304,9.23904346 27.386277,9.36699057 27.3876,9.5 L27.3876,17 L23.3876,17 L23.3876,0.259902214 C23.5282954,0.257177958 23.6632906,0.315554261 23.7576,0.42 L30.6476,8.17 C30.7792256,8.3159656 30.8124876,8.5257807 30.7324611,8.70529955 C30.6524347,8.8848184 30.4741481,9.00032868 30.2776,9 Z" id="Shape" fill="#2980BA"/><path d="M40.6107,17 L40.6107,9.5 C40.6107,9.22385763 40.8345576,9 41.1107,9 L43.4973,9 C43.6942025,9.00000449 43.8727741,8.88444557 43.9534341,8.7048222 C44.0340941,8.52519883 44.001822,8.31496043 43.871,8.1678 L36.9844,0.42 C36.8895164,0.313258976 36.7535165,0.252187161 36.6107,0.252187161 C36.4678835,0.252187161 36.3318836,0.313258976 36.237,0.42 L29.35,8.1678 C29.2191297,8.31501459 29.1868862,8.52534749 29.2676477,8.70500476 C29.3484093,8.88466204 29.527125,9.00016214 29.7241,9 L32.1107,9 C32.3868424,9 32.6107,9.22385763 32.6107,9.5 L32.6107,17 L40.6107,17 Z" id="Shape" fill="#3B97D3"/><path d="M43.5007,9 L41.1107,9 C40.9776906,8.99867696 40.8497435,9.05093042 40.7556869,9.14498694 C40.6616304,9.23904346 40.609377,9.36699057 40.6107,9.5 L40.6107,17 L36.6107,17 L36.6107,0.259902214 C36.7513954,0.257177958 36.8863906,0.315554261 36.9807,0.42 L43.8707,8.17 C44.0023256,8.3159656 44.0355876,8.5257807 43.9555611,8.70529955 C43.8755347,8.8848184 43.6972481,9.00032868 43.5007,9 Z" id="Shape" fill="#2980BA"/><path d="M34,17 L34,9.5 C34,9.22385763 34.2238576,9 34.5,9 L36.8866,9 C37.0835025,9.00000449 37.2620741,8.88444557 37.3427341,8.7048222 C37.4233941,8.52519883 37.391122,8.31496043 37.2603,8.1678 L30.3737,0.42 C30.2788164,0.313258976 30.1428165,0.252187161 30,0.252187161 C29.8571835,0.252187161 29.7211836,0.313258976 29.6263,0.42 L22.74,8.1678 C22.609214,8.3149198 22.5769206,8.52508742 22.6575044,8.70468542 C22.7380883,8.88428341 22.9165519,8.99988641 23.1134,9 L25.5,9 C25.7761424,9 26,9.22385763 26,9.5 L26,17 L34,17 Z" id="Shape" fill="#FF5364"/><path d="M36.89,9 L34.5,9 C34.3669906,8.99867696 34.2390435,9.05093042 34.1449869,9.14498694 C34.0509304,9.23904346 33.998677,9.36699057 34,9.5 L34,17 L30,17 L30,0.259902214 C30.1406954,0.257177958 30.2756906,0.315554261 30.37,0.42 L37.26,8.17 C37.3916256,8.3159656 37.4248876,8.5257807 37.3448611,8.70529955 C37.2648347,8.8848184 37.0865481,9.00032868 36.89,9 Z" id="Shape" fill="#DF4D60"/></g></g></svg>
